<?xml version="1.0" encoding="UTF-8"?><svg id="Layer_2" xmlns="http://www.w3.org/2000/svg" viewBox="0 0 340.76 331.4"><defs><style>.cls-1{fill:#008e9d;}.cls-2{fill:#fff;}.cls-3{fill:#fefefe;}.cls-4{fill:#fdfdfd;}</style></defs><g id="Layer_1-2"><g><path class="cls-1" d="M170.43,331.39c-46.28,0-92.57,.05-138.85-.02C8.95,331.32,.22,321.94,0,299.5c-.08-8.14,2.4-10.32,10.36-10.23,18.59,.23,18.6-.19,18.6-18.37,0-45.47-.04-90.94,.02-136.41,.02-15.17,5.87-21.54,20.99-21.98,15.01-.43,30.05-.44,45.06,.05,6.6,.22,7.95-2.03,8.03-8.24,.29-21.24-7.43-30.5-29.06-33.95-5.7-.91-9.71-4.25-9.94-10.46-.19-5.08,2.74-8.24,7.42-9.87,5.52-1.93,11.52,.49,12.1,4.84,1.41,10.6,9.02,15.52,16.46,19.33,13.19,6.76,9.96,18.05,9.6,28.37-.27,7.87,1.86,10.33,9.94,10.12,6.84-.18,7.13-2.86,7.93-8.51,2.87-20.45-2.93-35.74-21.84-46.1-8.69-4.76-16.41-11.92-13.45-24.25,.9-3.76-1.48-6.68-3.91-9.7-3.5-4.35-4.89-9.67,.32-13.89,4.43-3.59,9.58-4.72,14.26-.22,4.53,4.35,4.14,8.95,.65,14.06-6.91,10.12-5.31,19.44,4.16,26.8,.96,.74,2,1.4,3.06,1.99,19.25,10.65,28.55,26.17,23.96,48.59-1.94,9.45,2.48,11.21,11.28,11.31,8.89,.1,10.78-2.71,10.36-10.95-.7-13.77,.14-27.61-.33-41.4-.24-7.17,2.07-11.49,7.93-16.13,18.2-14.4,17.55-14.09,7.62-29.46-2.52-3.9-1.72-8.8,2.4-12,4.19-3.26,8.64-4.08,13.34-.55,4.85,3.64,5.47,9.62,2.35,12.74-5.42,5.42-4.99,11.34-5.38,17.74-.52,8.54-8.74,11.14-13.93,15.6-5.08,4.36-7.64,8.3-7.38,15.12,.53,13.78,.39,27.61,.05,41.4-.14,5.56,1.13,7.82,7.28,7.75,6.03-.07,7.62-2.17,7.41-7.84-.38-10.14,.52-20.35-.29-30.43-.76-9.39,2.01-15.77,10.15-20.91,8.21-5.19,17.06-9.86,20.74-20.45,1.56-4.5,7.35-6.32,12.51-3.55,4.3,2.3,6.44,6.33,5.82,11.14-.74,5.73-4.83,8.03-10.28,8.38-20.79,1.32-31.11,12.22-31.33,32.88-.07,6.48-.57,12.95-.62,19.43-.08,9.96,8.86,15.2,18.27,11.06,3.73-1.64,2.9-4.85,2.42-7.19-5.16-25.15,6.18-41.53,26.65-54.59,12.04-7.68,12.05-13.8,4.54-26.69-2.09-3.59-3.5-7.55-.83-11.38,2.42-3.46,5.77-5.55,10.34-5.09,4.67,.47,7.18,3.3,8.73,7.36,.14,.38,.53,.99,.42,1.1-10.94,10.61,.21,29.98-15.41,38.8-2.77,1.57-4.75,4.67-7.59,5.96-19.9,9.05-21.08,25.83-19.51,44.41,.5,5.83,2.02,7.37,7.73,7.6,6.9,.29,7.06-3.34,6.65-8.19-.07-.81,.13-1.65-.03-2.43-3.09-15.19,3.56-25.13,16.44-32.5,5.72-3.27,11.36-6.91,13.58-14.5,1.36-4.65,6.59-7,12.05-4.74,5.64,2.33,8.1,6.8,6.68,12.66-1.35,5.59-5.94,7.5-11.19,7.31-19.4-.69-35.04,19.33-30.37,38.42,1.26,5.13,4.54,3.66,7.35,3.69,14.61,.14,29.23,.04,43.85,.07,20.96,.04,26.87,5.83,26.89,26.47,.03,47.09,.17,94.19-.16,141.28-.05,7.42,1.93,9.15,9.37,9.77,6.24,.52,16.63-6.94,18.83,5.41,3.05,17.1-5.23,31.72-18.78,34.9-4.28,1.01-8.85,1.06-13.29,1.07-45.88,.07-91.76,.04-137.63,.04Z"/><path class="cls-4" d="M169.79,289.48c-41.4,0-82.79-.22-124.19,.19-8.03,.08-10.12-2.17-10.06-10.11,.37-47.48,.14-94.96,.21-142.44,.02-14.51,2.7-17.21,16.89-17.22,78.73-.04,157.47,.07,236.2-.12,11.29-.03,16.13,4.44,16.07,15.9-.26,48.29-.32,96.59,.09,144.88,.07,8.06-2.82,9.13-9.81,9.08-41.8-.3-83.6-.15-125.4-.15Z"/><path class="cls-3" d="M169.6,324.07c-46.65,0-93.29-.02-139.94,.03-6.14,0-11.98-.06-16.82-4.92-5.87-5.9-6.82-13.45-4.75-20.26,1.67-5.49,8.48-2.49,12.88-2.52,32.45-.25,64.9-.04,97.35-.22,6.01-.03,10.72,.37,13.69,6.94,2.56,5.67,8.5,6.86,14.5,6.84,17.85-.06,35.69,.01,53.54-.04,5.75-.02,12.03-.31,15-5.89,3.93-7.4,9.81-7.95,17.07-7.88,29.2,.28,58.41,.01,87.61,.24,4.13,.03,10.28-2.67,12.09,2.21,2.21,5.96,1.63,12.92-2.74,18.49-4.65,5.93-11.09,7.09-18.32,7.07-47.05-.16-94.1-.08-141.15-.08Z"/><path class="cls-4" d="M209.99,297.18c-8.88,8.26-62.35,8.58-72.19,0h72.19Z"/><path class="cls-2" d="M77.99,61.32c-.85,.55-2.12,2.04-3.39,2.04-2.2,0-3.58-1.61-3.38-4.05,.16-1.95,1.7-3.19,3.21-2.85,1.78,.4,3.89,1.39,3.55,4.86Z"/><path class="cls-2" d="M97.19,14.09c.72,1.01,2.35,2.28,2.27,3.42-.16,2.25-2.06,3.31-4.36,2.81-1.85-.4-2.62-1.71-2.22-3.6,.42-1.96,2-2.23,4.31-2.64Z"/><path class="cls-2" d="M248.13,16.31c.06,2.77-1.21,3.79-2.84,4.07-2.34,.4-3.9-.7-3.84-3.23,.04-2,1.74-2.97,3.26-2.84,1.33,.12,2.55,1.44,3.43,2Z"/><path class="cls-2" d="M216.47,41.78c-1.69-.2-3.24-.78-3.56-2.63-.47-2.75,1.65-3.48,3.64-3.59,1.72-.09,3.04,1.18,2.99,3.06-.05,1.83-1.34,2.79-3.07,3.16Z"/><path class="cls-2" d="M262.97,59.51c.74-.71,1.64-2.26,2.83-2.55,2.88-.69,2.71,1.93,2.89,3.62,.18,1.68-.63,2.96-2.69,2.65-1.75-.26-2.58-1.43-3.03-3.72Z"/><path class="cls-2" d="M179.96,7.32c3.21,.18,3.86,1.28,3.45,3.09-.49,2.16-2.01,3.35-4.06,3.38-.46,0-1.2-1.86-1.39-2.94-.4-2.41,.99-3.43,2-3.53Z"/><path class="cls-1" d="M169.47,275c-36.09,0-72.18-.26-108.26,.19-8.95,.11-12.16-2.5-12.08-11.61,.35-39.73,.31-79.47,.01-119.2-.06-7.75,2.04-10.56,10.26-10.53,73.8,.29,147.59,.29,221.39,0,8.53-.03,10.03,3.37,9.98,10.84-.27,40.14-.35,80.28,.05,120.42,.08,8.4-3.07,10.1-10.66,10.04-36.9-.31-73.8-.14-110.69-.14Z"/><path class="cls-3" d="M169.9,268.02c-34.1,0-68.2-.23-102.29,.17-7.93,.09-11.26-1.13-11.12-10.28,.58-35.71,.5-71.44,.03-107.15-.11-8.23,2.42-10.56,10.25-9.92,8.07,.65,16.25-.21,24.33,.3,3.9,.24,10.43-2.94,11.26,2.84,.91,6.31,3.97,14.92-2.89,19.27-8.32,5.27-13.85,16.14-26.73,13.64-4.1-.8-8.32,3.29-8.7,8.45-.39,5.38,2.21,9.67,7.32,11.34,5.09,1.66,10.59,.51,11.89-5.17,2.33-10.14,9.6-14.95,17.71-19.42,9.28-5.11,9.93-13.77,8.8-22.79-.92-7.32,2.36-8.48,8.88-8.54,6.85-.07,7.7,2.29,8.99,8.71,4.25,21.06-9.43,30.82-23.55,40.3-8.41,5.65-13.96,11.86-11.84,22.72,.83,4.24-1,7.33-4.38,10.5-3.86,3.63-3.77,9.02,.14,13.05,4.26,4.39,9.41,4.42,14.29,.85,4.73-3.46,4.7-7.92,2.17-12.82-8.03-15.59-7.3-18.9,6.13-29.89,1.88-1.54,3.27-3.85,5.34-4.95,15.16-8,22.24-19.92,18.78-37.25-1.88-9.39,2.38-11.28,11.25-11.34,8.83-.06,11.12,2.63,10.36,10.93-.74,8.05-.16,16.22-.16,24.34,0,19.98-5.36,26.05-26.04,28.87-5.9,.8-8.26,4.17-9.01,9.61-.84,6.1,2.61,8.84,7.69,10.48,5.71,1.84,11.35-.91,11.62-5.56,.62-10.86,9.61-13.59,15.91-18.21,5.43-3.98,7.05-7.88,6.9-14.03-.32-12.98,.05-25.98-.17-38.96-.08-4.79,.56-7.6,6.47-7.25,4.97,.29,8.45,.31,8.21,7-.46,12.97,.76,26.05-.4,38.94-1.07,11.85,2.69,20.1,12.5,26.34,9.81,6.24,12.72,13.73,4.36,23.83-3.51,4.24-3.63,9.85,.99,14.08,4.27,3.91,9.34,3.14,13.42,.1,5.05-3.76,5.31-9.81,1.57-14.01-3.95-4.43-5.3-8.8-4.8-14.27,.79-8.61-6.07-11.86-11.55-15.63-6.96-4.77-10.24-10.39-9.62-19.21,.94-13.32,1.17-26.76,.68-40.1-.34-9.34,5.75-6.68,10.45-6.86,5.05-.2,11.74-1.56,9.83,7.19-5.23,23.95,7.04,37.21,26.69,47.58,11.73,6.19,12.53,15.31,4.66,26.75-3.62,5.26-2.81,10.03,1.29,14.17,4.12,4.16,8.89,3.13,13.25,.08,5.54-3.87,4.89-8.78,1.54-13.59-1.83-2.62-5.04-4.63-4.11-8.31,3.87-15.29-5.84-22.47-17.24-27.83-17.5-8.23-20.97-22.19-18.8-39.7,.7-5.65,2.79-6.38,7.52-6.52,5.11-.16,8.09,1.25,6.79,6.66-3.42,14.32,5,21.23,15.74,27.76,5.78,3.52,12.86,6.44,13.78,15.47,.57,5.59,6.03,7.34,11.32,6.26,5.33-1.09,8.68-4.62,8.33-10.33-.37-5.98-4.3-11.19-9.76-10.25-14.19,2.45-20.48-9.38-29.79-15.22-5.52-3.47-2.42-11.44-1.85-17.1,.6-5.96,6.53-2.8,9.98-2.96,9.72-.43,19.5,.26,29.21-.29,7.01-.39,9.83,.99,9.72,9.04-.49,36.53-.4,73.06-.05,109.59,.07,6.93-1.9,8.76-8.74,8.7-34.91-.34-69.82-.15-104.73-.15Z"/><path class="cls-2" d="M78.07,186.32c.09,1.86-.89,3.06-2.54,3.56-2.48,.76-3.98-.7-4.23-2.87-.2-1.77,1.42-2.94,3.09-3.01,1.54-.07,3.19,.39,3.67,2.32Z"/><path class="cls-2" d="M265.08,183.37c2.76-.07,3.79,1.21,4.07,2.83,.4,2.34-.7,3.88-3.23,3.83-1.99-.04-2.99-1.72-2.84-3.24,.13-1.33,1.46-2.54,2.01-3.42Z"/><path class="cls-2" d="M134.59,215.02c-.19,1.7-.8,3.23-2.64,3.55-2.75,.48-3.49-1.63-3.59-3.62-.08-1.72,1.19-3.04,3.06-2.99,1.83,.04,2.8,1.33,3.16,3.07Z"/><path class="cls-2" d="M95.9,226.18c2.07,.25,3.35,1.34,3.08,3.1-.33,2.12-1.67,3.64-4.17,2.95-1.83-.51-2.34-1.94-2.13-3.7,.25-2.13,1.91-2.16,3.23-2.35Z"/><path class="cls-2" d="M244.58,226.16c1.95,.53,3.94,1.41,3.3,3.73-.3,1.09-2.12,2.43-3.3,2.48-2.06,.08-3.45-1.28-3.25-3.72,.17-2.12,1.81-2.12,3.25-2.49Z"/><path class="cls-2" d="M202.6,246.31c-1.47-.17-3.4,.2-3.27-2.18,.08-1.54,.34-3.34,2.3-3.57,1.64-.19,3.07,.48,3.25,2.45,.16,1.7-.19,3.11-2.28,3.29Z"/></g></g></svg>